<svg xmlns="http://www.w3.org/2000/svg" viewBox="0 0 512 512" fill="none">
  <defs>
    <linearGradient id="background" x1="40" y1="20" x2="472" y2="492" gradientUnits="userSpaceOnUse">
      <stop stop-color="#0d3024"/>
      <stop offset="1" stop-color="#071c16"/>
    </linearGradient>
    <linearGradient id="letter" x1="130" y1="100" x2="380" y2="420" gradientUnits="userSpaceOnUse">
      <stop stop-color="#baf05b"/>
      <stop offset="1" stop-color="#08a56c"/>
    </linearGradient>
  </defs>

  <rect width="512" height="512" rx="112" fill="url(#background)"/>

  <rect x="10" y="10" width="492" height="492" rx="104"
        stroke="#08a56c" stroke-opacity=".5" stroke-width="4"/>

  <path d="M344 151C319 124 286 111 247 111C184 111 143 147 143 199C143 248 176 270 241 287L270 295C298 303 310 314 310 333C310 355 288 371 255 371C217 371 186 355 161 328L122 370C157 409 201 429 256 429C326 429 371 391 371 332C371 281 337 255 273 239L244 232C215 225 204 215 204 198C204 178 222 166 249 166C277 166 300 176 320 195L344 151Z"
        fill="url(#letter)"/>

  <path d="M359 87H393V121"
        stroke="#baf05b" stroke-width="9"
        stroke-linecap="round" stroke-linejoin="round"/>

  <path d="M393 87L354 126"
        stroke="#baf05b" stroke-width="9"
        stroke-linecap="round"/>

  <circle cx="405" cy="405" r="7" fill="#baf05b"/>
</svg>